<svg id="visual" viewBox="0 0 960 540" width="960" height="540" xmlns="http://www.w3.org/2000/svg" xmlns:xlink="http://www.w3.org/1999/xlink" version="1.1"><g stroke-width="1" stroke-linejoin="bevel"><path d="M443 233L389 216L445 358Z" fill="#cf981e" stroke="#cf981e"></path><path d="M389 216L297 333L445 358Z" fill="#d39d1e" stroke="#d39d1e"></path><path d="M297 333L366 408L445 358Z" fill="#cf981e" stroke="#cf981e"></path><path d="M389 216L287 252L297 333Z" fill="#cf981e" stroke="#cf981e"></path><path d="M366 408L418 416L445 358Z" fill="#c48c1b" stroke="#c48c1b"></path><path d="M138 273L212 276L156 167Z" fill="#cc941d" stroke="#cc941d"></path><path d="M287 252L212 276L297 333Z" fill="#c1881a" stroke="#c1881a"></path><path d="M297 333L208 412L366 408Z" fill="#cf981e" stroke="#cf981e"></path><path d="M624 349L593 278L445 358Z" fill="#cf981e" stroke="#cf981e"></path><path d="M445 358L593 278L443 233Z" fill="#daa520" stroke="#daa520"></path><path d="M443 233L415 49L389 216Z" fill="#ba8019" stroke="#ba8019"></path><path d="M212 276L208 412L297 333Z" fill="#c1881a" stroke="#c1881a"></path><path d="M366 408L304 540L418 416Z" fill="#c8901c" stroke="#c8901c"></path><path d="M603 416L624 349L445 358Z" fill="#ba8019" stroke="#ba8019"></path><path d="M418 416L603 416L445 358Z" fill="#bd841a" stroke="#bd841a"></path><path d="M510 69L415 49L443 233Z" fill="#d39d1e" stroke="#d39d1e"></path><path d="M389 216L205 86L287 252Z" fill="#d6a11f" stroke="#d6a11f"></path><path d="M625 157L510 69L443 233Z" fill="#cf981e" stroke="#cf981e"></path><path d="M625 157L443 233L593 278Z" fill="#c1881a" stroke="#c1881a"></path><path d="M156 167L212 276L287 252Z" fill="#c1881a" stroke="#c1881a"></path><path d="M212 276L138 273L208 412Z" fill="#cc941d" stroke="#cc941d"></path><path d="M208 412L304 540L366 408Z" fill="#c1881a" stroke="#c1881a"></path><path d="M418 416L504 540L603 416Z" fill="#c48c1b" stroke="#c48c1b"></path><path d="M304 540L504 540L418 416Z" fill="#ba8019" stroke="#ba8019"></path><path d="M659 135L625 157L698 234Z" fill="#c48c1b" stroke="#c48c1b"></path><path d="M205 86L156 167L287 252Z" fill="#b67c18" stroke="#b67c18"></path><path d="M415 49L205 86L389 216Z" fill="#ba8019" stroke="#ba8019"></path><path d="M504 540L550 540L603 416Z" fill="#bd841a" stroke="#bd841a"></path><path d="M603 416L668 397L624 349Z" fill="#cc941d" stroke="#cc941d"></path><path d="M698 234L625 157L593 278Z" fill="#daa520" stroke="#daa520"></path><path d="M735 540L668 397L603 416Z" fill="#daa520" stroke="#daa520"></path><path d="M444 0L396 0L415 49Z" fill="#daa520" stroke="#daa520"></path><path d="M415 49L253 0L205 86Z" fill="#d6a11f" stroke="#d6a11f"></path><path d="M208 412L218 540L304 540Z" fill="#d6a11f" stroke="#d6a11f"></path><path d="M104 426L218 540L208 412Z" fill="#c8901c" stroke="#c8901c"></path><path d="M661 0L444 0L510 69Z" fill="#d6a11f" stroke="#d6a11f"></path><path d="M510 69L444 0L415 49Z" fill="#bd841a" stroke="#bd841a"></path><path d="M698 234L593 278L710 334Z" fill="#c8901c" stroke="#c8901c"></path><path d="M625 157L659 135L510 69Z" fill="#cf981e" stroke="#cf981e"></path><path d="M710 334L593 278L624 349Z" fill="#daa520" stroke="#daa520"></path><path d="M156 167L100 186L138 273Z" fill="#ba8019" stroke="#ba8019"></path><path d="M138 273L104 426L208 412Z" fill="#c1881a" stroke="#c1881a"></path><path d="M108 0L100 186L156 167Z" fill="#cf981e" stroke="#cf981e"></path><path d="M0 357L104 426L138 273Z" fill="#bd841a" stroke="#bd841a"></path><path d="M668 397L710 334L624 349Z" fill="#c8901c" stroke="#c8901c"></path><path d="M396 0L253 0L415 49Z" fill="#c8901c" stroke="#c8901c"></path><path d="M205 86L108 0L156 167Z" fill="#cc941d" stroke="#cc941d"></path><path d="M100 186L0 357L138 273Z" fill="#b67c18" stroke="#b67c18"></path><path d="M104 426L73 540L218 540Z" fill="#d39d1e" stroke="#d39d1e"></path><path d="M724 0L661 0L659 135Z" fill="#bd841a" stroke="#bd841a"></path><path d="M659 135L661 0L510 69Z" fill="#cf981e" stroke="#cf981e"></path><path d="M0 480L73 540L104 426Z" fill="#cc941d" stroke="#cc941d"></path><path d="M253 0L108 0L205 86Z" fill="#cf981e" stroke="#cf981e"></path><path d="M100 186L0 168L0 357Z" fill="#c48c1b" stroke="#c48c1b"></path><path d="M0 104L0 168L100 186Z" fill="#d6a11f" stroke="#d6a11f"></path><path d="M550 540L735 540L603 416Z" fill="#c48c1b" stroke="#c48c1b"></path><path d="M668 397L867 386L710 334Z" fill="#daa520" stroke="#daa520"></path><path d="M844 161L659 135L698 234Z" fill="#d39d1e" stroke="#d39d1e"></path><path d="M0 357L0 480L104 426Z" fill="#c8901c" stroke="#c8901c"></path><path d="M108 0L0 104L100 186Z" fill="#daa520" stroke="#daa520"></path><path d="M844 161L698 234L710 334Z" fill="#d6a11f" stroke="#d6a11f"></path><path d="M776 0L724 0L659 135Z" fill="#cc941d" stroke="#cc941d"></path><path d="M0 480L0 540L73 540Z" fill="#c1881a" stroke="#c1881a"></path><path d="M867 386L844 161L710 334Z" fill="#c8901c" stroke="#c8901c"></path><path d="M852 483L867 386L668 397Z" fill="#c8901c" stroke="#c8901c"></path><path d="M844 161L776 0L659 135Z" fill="#daa520" stroke="#daa520"></path><path d="M108 0L0 0L0 104Z" fill="#c48c1b" stroke="#c48c1b"></path><path d="M735 540L852 483L668 397Z" fill="#c48c1b" stroke="#c48c1b"></path><path d="M960 154L893 98L844 161Z" fill="#ba8019" stroke="#ba8019"></path><path d="M844 161L893 98L776 0Z" fill="#ba8019" stroke="#ba8019"></path><path d="M960 435L960 332L867 386Z" fill="#bd841a" stroke="#bd841a"></path><path d="M867 386L960 332L844 161Z" fill="#bd841a" stroke="#bd841a"></path><path d="M735 540L883 540L852 483Z" fill="#c48c1b" stroke="#c48c1b"></path><path d="M960 435L867 386L852 483Z" fill="#cc941d" stroke="#cc941d"></path><path d="M883 540L960 435L852 483Z" fill="#bd841a" stroke="#bd841a"></path><path d="M960 332L960 154L844 161Z" fill="#d39d1e" stroke="#d39d1e"></path><path d="M893 98L960 0L776 0Z" fill="#c48c1b" stroke="#c48c1b"></path><path d="M960 154L960 104L893 98Z" fill="#cf981e" stroke="#cf981e"></path><path d="M883 540L960 540L960 435Z" fill="#d39d1e" stroke="#d39d1e"></path><path d="M960 104L960 0L893 98Z" fill="#d6a11f" stroke="#d6a11f"></path></g></svg>