<?xml version="1.0" encoding="utf-8"?>
<!-- Generator: Adobe Illustrator 27.3.1, SVG Export Plug-In . SVG Version: 6.00 Build 0)  -->
<svg version="1.1" id="Camada_1" xmlns="http://www.w3.org/2000/svg" xmlns:xlink="http://www.w3.org/1999/xlink" x="0px" y="0px"
	 viewBox="0 0 500 500" style="enable-background:new 0 0 500 500;" xml:space="preserve">
<style type="text/css">
	.st0{fill:url(#SVGID_1_);}
	.st1{fill:url(#SVGID_00000057147391288230737530000015426965199698383253_);}
	.st2{fill:url(#SVGID_00000017477020738948335210000001320986399405346231_);}
	.st3{fill:url(#SVGID_00000171716143870049407610000013775449063616797603_);}
</style>
<g>
	<linearGradient id="SVGID_1_" gradientUnits="userSpaceOnUse" x1="182.23" y1="303.438" x2="162.172" y2="281.4545">
		<stop  offset="0" style="stop-color:#f1f1f1"/>
		<stop  offset="0.16" style="stop-color:#f1f1f1"/>
		<stop  offset="0.36" style="stop-color:#f1f1f1"/>
		<stop  offset="0.58" style="stop-color:#f1f1f1"/>
		<stop  offset="0.82" style="stop-color:#f1f1f1"/>
		<stop  offset="1" style="stop-color:#f1f1f1"/>
	</linearGradient>
	<polygon class="st0" points="169.4,275.4 145.5,309.6 175.1,309.6 199,275.4 	"/>
	
		<linearGradient id="SVGID_00000007413532568521048470000015346242481584814251_" gradientUnits="userSpaceOnUse" x1="356.1875" y1="316.6746" x2="178.1828" y2="121.5835">
		<stop  offset="0" style="stop-color:#f1f1f1"/>
		<stop  offset="0.16" style="stop-color:#f1f1f1"/>
		<stop  offset="0.36" style="stop-color:#f1f1f1"/>
		<stop  offset="0.58" style="stop-color:#f1f1f1"/>
		<stop  offset="0.82" style="stop-color:#f1f1f1"/>
		<stop  offset="1" style="stop-color:#f1f1f1"/>
	</linearGradient>
	<path style="fill:url(#SVGID_00000007413532568521048470000015346242481584814251_);" d="M345.5,278.3l-38.2-122.1h-25.4h-0.2
		h-29.4l-38.6,55.5l-38.6-55.5h-29.6c11.5,16.7,29.2,42.1,52.9,76.2c23.7,34.1,41.7,59.8,53.8,77.2h29.6l-53.2-76.7l53.2-76.5
		c5.4,16.3,13.4,40.7,23.8,73.3c10.6,32.6,18.5,57.1,23.9,73.3l2.1,6.6h29l19.6-70.8h-24.1L345.5,278.3z"/>
	
		<linearGradient id="SVGID_00000115489412694927084000000012948016626890366640_" gradientUnits="userSpaceOnUse" x1="499.5119" y1="272.1591" x2="393.6702" y2="156.1577">
		<stop  offset="0" style="stop-color:#f1f1f1"/>
		<stop  offset="0.16" style="stop-color:#f1f1f1"/>
		<stop  offset="0.36" style="stop-color:#f1f1f1"/>
		<stop  offset="0.58" style="stop-color:#f1f1f1"/>
		<stop  offset="0.82" style="stop-color:#f1f1f1"/>
		<stop  offset="1" style="stop-color:#f1f1f1"/>
	</linearGradient>
	<polygon style="fill:url(#SVGID_00000115489412694927084000000012948016626890366640_);" points="474.1,156.1 441.8,278.2 
		405.1,171.3 380.2,171.3 428,309.5 456.6,309.5 499.2,156.1 	"/>
	
		<linearGradient id="SVGID_00000165214210967606940480000011672105334454392450_" gradientUnits="userSpaceOnUse" x1="265.1698" y1="392.6697" x2="34.3879" y2="139.7352">
		<stop  offset="0" style="stop-color:#f1f1f1"/>
		<stop  offset="0.16" style="stop-color:#f1f1f1"/>
		<stop  offset="0.36" style="stop-color:#f1f1f1"/>
		<stop  offset="0.58" style="stop-color:#f1f1f1"/>
		<stop  offset="0.82" style="stop-color:#f1f1f1"/>
		<stop  offset="1" style="stop-color:#f1f1f1"/>
	</linearGradient>
	<path style="fill:url(#SVGID_00000165214210967606940480000011672105334454392450_);" d="M234.2,387.3
		c-52.7-2.5-100.8-31-128.3-76.1C60,236.1,83.8,138,158.9,92.1L175.5,82l-19.4,1.4C71.7,89.6,5.3,157.7,1.1,242.2
		c-4.6,92.4,66.7,171.1,159.1,175.6c2.7,0.1,5.4,0.2,8.1,0.2c28.9-0.2,57.3-7.7,82.4-21.9l16.9-9.6l-19.4,0.8
		C243.6,387.5,238.8,387.5,234.2,387.3z M224.7,398.1c-1.5,0.6-3,1.1-4.5,1.7c-82,29.9-172.8-12.3-202.7-94.3s12.3-172.8,94.3-202.7
		c8.4-3.2,17.1-5.7,25.9-7.5c-37.2,29.1-60.4,72.5-64,119.6c-7.3,93,62.2,174.3,155.2,181.5C227.5,397,226.1,397.6,224.7,398.1z"/>
</g>
</svg>
