<?xml version="1.0" encoding="utf-8"?>
<!-- Generator: Adobe Illustrator 27.3.1, SVG Export Plug-In . SVG Version: 6.00 Build 0)  -->
<svg version="1.1" id="TIPOGRAFIA" xmlns="http://www.w3.org/2000/svg" xmlns:xlink="http://www.w3.org/1999/xlink" x="0px" y="0px"
	 viewBox="0 0 500 129.7" style="enable-background:new 0 0 500 129.7;" xml:space="preserve">
<style type="text/css">
	.st0{fill:#0a0a0a;}
	.st1{fill:#daa520;}
</style>
<g>
	<g class="st0">
		<path d="M41.5,58.4H0v-57h9v48h32.4L41.5,58.4L41.5,58.4z"/>
		<path d="M91,1.5v38.4c0,5.7-2,10.6-6.1,14.6s-8.9,6.1-14.6,6.1s-10.6-2-14.6-6.1s-6.1-8.9-6.1-14.6V1.5h9v38.4
			c0,3.3,1.1,5.9,3.5,8.2c2.3,2.3,5,3.5,8.2,3.5s5.9-1.1,8.2-3.5c2.2-2.2,3.5-5,3.5-8.2V1.5H91z"/>
	</g>
	<g class="st0">
		<path class="st1" d="M149.7,58.4h-11c-4.5-6.5-11.2-16.1-20-28.7C109.9,17,103.4,7.6,99.1,1.4h11L124.4,22l14.3-20.6h11L129.9,30
			L149.7,58.4z M119,45.7l-8.8,12.7h-11l8.8-12.7H119z"/>
	</g>
	<g class="st0">
		<path d="M157.9,1.5h43.9v9h-43.9V1.5z M201.8,49.4v9h-43.9V25.5h43.9v8.9h-35v14.9L201.8,49.4L201.8,49.4z"/>
		<path d="M268.2,0c3,0,6,0.5,8.8,1.4s5.5,2.2,7.9,3.9s4.5,3.6,6.3,5.9l-6.6,6.6c-1.9-2.6-4.3-4.7-7.2-6.1c-2.9-1.5-6-2.2-9.3-2.2
			c-5.7,0-10.6,2-14.6,6.1c-4.1,4.1-6.1,8.9-6.1,14.6s2,10.6,6.1,14.6c4.1,4.1,8.9,6.1,14.6,6.1c2.7,0,5.3-0.5,7.8-1.5v9.8
			c-2.5,0.7-5.2,1-7.8,1c-5.4,0-10.5-1.3-15-4.1c-4.6-2.6-8.2-6.3-10.9-10.9c-2.6-4.6-4-9.6-4-15s1.3-10.5,4-15s6.3-8.2,10.9-10.9
			C257.7,1.3,262.7,0,268.2,0z M282.6,39h-17.3v-9h28.6v28.5h-9V39H282.6z"/>
	</g>
	<g class="st0">
		<path d="M343.6,58.4h-41.5v-57h9v48h32.5V58.4L343.6,58.4z"/>
	</g>
	<g class="st0">
		<path d="M378,0c4.1,0,7.9,0.8,11.7,2.3c3.7,1.5,6.9,3.7,9.6,6.4c2.6,2.6,4.8,5.9,6.4,9.6c1.5,3.7,2.3,7.5,2.3,11.7
			c0,5.4-1.3,10.5-4.1,15c-2.6,4.6-6.3,8.2-10.9,10.9c-4.6,2.6-9.6,4.1-15,4.1s-10.5-1.3-15-4.1c-4.6-2.6-8.2-6.3-10.9-10.9
			c-2.6-4.6-4-9.6-4-15s1.3-10.5,4-15c2.6-4.6,6.3-8.2,10.9-10.9C367.7,1.3,372.7,0,378,0z M392.7,44.5c4.1-4,6-8.8,6-14.5
			s-2-10.6-6-14.5c-4.1-4.1-8.8-6-14.5-6s-10.6,2-14.5,6c-4.1,4.1-6,8.8-6,14.5s2,10.6,6,14.5c4.1,4.1,8.8,6,14.5,6
			C383.8,50.5,388.6,48.6,392.7,44.5z"/>
	</g>
	<g class="st0">
		<path class="st1" d="M435.4,58.4l-0.8-2.4c-2-6-5.1-15.1-9.1-27.2c-4.1-12.1-7.1-21.2-9.1-27.3h9.9L441,46.8l4.1-14.6h9.2
			l-7.5,26.3L435.4,58.4L435.4,58.4z M453.5,1.5h9.6l14.8,45.3l12.5-45.3h9.7l-16.5,57h-11.1C463,30.4,456.6,11.4,453.5,1.5z"/>
	</g>
	<g class="st0">
		<path d="M43,125.8H26.4l-1.3,3.4c-0.2,0.5-0.5,0.8-0.9,1.1s-0.8,0.4-1.3,0.4c-0.4,0-0.7-0.1-1-0.2c-0.3-0.1-0.6-0.3-0.8-0.5
			c-0.2-0.2-0.4-0.5-0.5-0.8s-0.2-0.6-0.2-0.9c0-0.3,0.1-0.6,0.2-0.9l11.8-30.6c0.1-0.4,0.4-0.7,0.8-1.1c0.4-0.4,0.9-0.5,1.4-0.5
			s1.1,0.1,1.5,0.4s0.7,0.6,0.9,1l11.9,30.7c0.1,0.2,0.1,0.3,0.1,0.5s0.1,0.3,0.1,0.4c0,0.3-0.1,0.6-0.2,0.9
			c-0.1,0.3-0.3,0.5-0.5,0.8c-0.2,0.2-0.5,0.4-0.8,0.5s-0.6,0.2-1,0.2c-0.5,0-0.9-0.1-1.3-0.4c-0.4-0.3-0.7-0.6-0.9-1.1L43,125.8z
			 M28.4,120.8h12.8l-6.4-16.7L28.4,120.8z"/>
		<path d="M74.6,95.1h17c0.7,0,1.2,0.2,1.7,0.7s0.7,1,0.7,1.7c0,0.3-0.1,0.6-0.2,0.9s-0.3,0.5-0.5,0.8c-0.2,0.2-0.5,0.4-0.8,0.5
			s-0.6,0.2-0.9,0.2H76.9v10.2h9.9c0.3,0,0.6,0.1,0.9,0.2s0.5,0.3,0.8,0.5c0.2,0.2,0.4,0.5,0.5,0.8s0.2,0.6,0.2,1
			c0,0.3-0.1,0.6-0.2,0.9s-0.3,0.5-0.5,0.8s-0.5,0.4-0.8,0.5s-0.6,0.2-0.9,0.2h-9.9v10.5h14.5c0.7,0,1.2,0.2,1.7,0.7s0.7,1,0.7,1.7
			c0,0.7-0.2,1.2-0.7,1.7s-1,0.7-1.7,0.7h-17c-0.6,0-1.2-0.3-1.6-0.7s-0.7-1-0.7-1.7V97.6c0-0.3,0.1-0.7,0.2-0.9
			c0.1-0.3,0.3-0.6,0.5-0.8c0.2-0.2,0.5-0.4,0.8-0.5C73.9,95.2,74.2,95.1,74.6,95.1L74.6,95.1z"/>
		<path d="M116.3,124.1c-0.2-0.4-0.3-0.9-0.3-1.3c0-0.3,0.1-0.6,0.2-0.9s0.3-0.5,0.5-0.7s0.5-0.3,0.7-0.5c0.3-0.1,0.5-0.2,0.8-0.2
			c0.7,0,1.4,0.5,2.2,1.4c0.7,1.3,1.8,2.3,3.2,3c1.3,0.7,2.8,1.1,4.7,1.1c0.9,0,1.7-0.1,2.5-0.4c0.8-0.2,1.6-0.6,2.2-1.1
			c0.7-0.5,1.2-1.1,1.6-1.8c0.4-0.7,0.6-1.5,0.6-2.4s-0.2-1.6-0.6-2.2c-0.4-0.6-1-1.1-1.6-1.5c-0.7-0.4-1.4-0.7-2.3-1
			c-0.8-0.3-1.7-0.5-2.5-0.8c-1.5-0.3-2.9-0.7-4.4-1.2c-1.4-0.5-2.5-1.2-3.7-1.9c-1-0.8-1.8-1.7-2.4-2.8c-0.6-1.1-0.9-2.3-0.9-3.9
			s0.3-2.8,0.9-4.1c0.6-1.2,1.5-2.2,2.5-3.2c1-0.8,2.2-1.5,3.6-2c1.3-0.5,2.7-0.7,4.2-0.7c1.1,0,2.1,0.1,3.2,0.3c1,0.2,2,0.5,2.8,1
			c0.9,0.4,1.7,1,2.4,1.6s1.3,1.4,1.8,2.2c0.2,0.3,0.2,0.6,0.2,0.9c0,0.6-0.2,1.1-0.6,1.5c-0.4,0.4-0.9,0.6-1.6,0.6
			c-0.5,0-1-0.2-1.4-0.5c-0.5-0.5-1-1-1.5-1.3c-0.5-0.4-1-0.7-1.5-0.9c-0.5-0.2-1.1-0.4-1.7-0.5c-0.6-0.1-1.3-0.2-2-0.2
			c-0.8,0-1.6,0.1-2.4,0.3c-0.8,0.2-1.5,0.5-2.1,1c-0.6,0.4-1.1,0.9-1.5,1.6c-0.4,0.6-0.6,1.3-0.6,2.1c0,0.9,0.2,1.6,0.7,2.2
			s1.1,1,1.8,1.4c0.7,0.4,1.6,0.7,2.5,1c1,0.3,1.9,0.5,2.9,0.7c1.3,0.4,2.5,0.8,3.9,1.3c1.2,0.5,2.3,1.1,3.4,1.9
			c1,0.8,1.7,1.7,2.3,2.7c0.6,1.1,0.9,2.3,0.9,3.9s-0.3,2.9-0.9,4.3c-0.6,1.3-1.5,2.4-2.6,3.4s-2.3,1.7-3.9,2.2
			c-1.5,0.5-3,0.8-4.7,0.8c-1.3,0-2.6-0.2-3.9-0.5c-1.2-0.3-2.3-0.8-3.5-1.4c-1-0.6-1.9-1.3-2.7-2.1S116.7,125,116.3,124.1z"/>
		<path d="M172.1,99.9h-8.3c-0.7,0-1.2-0.2-1.6-0.7c-0.4-0.4-0.7-1-0.7-1.6c0-0.7,0.2-1.2,0.7-1.6s1-0.7,1.6-0.7h21.5
			c0.3,0,0.6,0.1,0.9,0.2c0.3,0.1,0.5,0.3,0.8,0.5s0.4,0.5,0.5,0.8s0.2,0.6,0.2,0.9c0,0.7-0.2,1.2-0.7,1.6s-1,0.6-1.7,0.6h-8.4v28.5
			c0,0.7-0.2,1.2-0.7,1.6c-0.5,0.4-1,0.7-1.7,0.7s-1.2-0.2-1.6-0.7c-0.4-0.5-0.6-1-0.6-1.6V99.9H172.1z"/>
		<path d="M210.1,97.6c0-0.7,0.2-1.2,0.7-1.7s1-0.7,1.7-0.7s1.2,0.2,1.7,0.7s0.7,1,0.7,1.7v14h16.3v-14c0-0.7,0.2-1.2,0.7-1.7
			s1-0.7,1.7-0.7c0.3,0,0.6,0.1,0.9,0.2c0.3,0.1,0.5,0.3,0.8,0.5c0.2,0.2,0.4,0.5,0.5,0.8s0.2,0.6,0.2,0.9V128
			c0,0.3-0.1,0.6-0.2,0.9c-0.1,0.3-0.3,0.5-0.5,0.8c-0.2,0.2-0.5,0.4-0.8,0.5s-0.6,0.2-0.9,0.2c-0.7,0-1.2-0.2-1.7-0.7
			s-0.7-1-0.7-1.7v-11.5h-16.3v11.6c0,0.7-0.2,1.2-0.7,1.7s-1,0.7-1.7,0.7s-1.2-0.2-1.7-0.7s-0.7-1-0.7-1.7V97.6z"/>
		<path d="M263.7,95.1h17c0.7,0,1.2,0.2,1.7,0.7s0.7,1,0.7,1.7c0,0.3-0.1,0.6-0.2,0.9s-0.3,0.5-0.5,0.8c-0.2,0.2-0.5,0.4-0.8,0.5
			s-0.6,0.2-0.9,0.2h-14.5v10.2h9.9c0.3,0,0.6,0.1,0.9,0.2s0.5,0.3,0.8,0.5c0.2,0.2,0.4,0.5,0.5,0.8s0.2,0.6,0.2,1
			c0,0.3-0.1,0.6-0.2,0.9s-0.3,0.5-0.5,0.8c-0.2,0.2-0.5,0.4-0.8,0.5s-0.6,0.2-0.9,0.2h-9.9v10.5h14.5c0.7,0,1.2,0.2,1.7,0.7
			s0.7,1,0.7,1.7c0,0.7-0.2,1.2-0.7,1.7s-1,0.7-1.7,0.7h-17.2c-0.6,0-1.2-0.3-1.6-0.7s-0.7-1-0.7-1.7V97.6c0-0.3,0.1-0.7,0.2-0.9
			c0.1-0.2,0.3-0.6,0.5-0.8s0.5-0.4,0.8-0.5C263,95.2,263.3,95.1,263.7,95.1L263.7,95.1z"/>
		<path d="M314.6,99.9h-8.3c-0.7,0-1.2-0.2-1.6-0.7c-0.4-0.4-0.7-1-0.7-1.6c0-0.7,0.2-1.2,0.7-1.6s1-0.7,1.6-0.7h21.5
			c0.3,0,0.6,0.1,0.9,0.2s0.5,0.3,0.8,0.5s0.4,0.5,0.5,0.8s0.2,0.6,0.2,0.9c0,0.7-0.2,1.2-0.7,1.6s-1,0.6-1.7,0.6h-8.4v28.5
			c0,0.7-0.2,1.2-0.7,1.6c-0.5,0.4-1,0.7-1.7,0.7s-1.2-0.2-1.6-0.7s-0.6-1-0.6-1.6V99.9H314.6z"/>
		<path d="M353.2,97.5c0-0.7,0.2-1.2,0.7-1.6s1-0.7,1.6-0.7c0.7,0,1.2,0.2,1.7,0.7c0.5,0.4,0.7,1,0.7,1.6v30.8
			c0,0.7-0.2,1.2-0.7,1.6c-0.5,0.4-1,0.7-1.7,0.7c-0.6,0-1.2-0.2-1.6-0.7s-0.7-1-0.7-1.6V97.5z"/>
		<path d="M398.8,130.8c-1.6,0-3.2-0.2-4.7-0.6c-1.5-0.4-2.9-1-4.3-1.8c-1.3-0.8-2.5-1.7-3.6-2.7c-1.1-1.1-2-2.2-2.7-3.7
			s-1.3-2.7-1.8-4.3c-0.5-1.5-0.6-3-0.6-4.7c0-1.5,0.2-3.2,0.6-4.6c0.4-1.5,1-2.9,1.7-4.3c0.7-1.3,1.6-2.5,2.7-3.7
			c1-1.1,2.2-2,3.6-2.8c1.3-0.8,2.7-1.4,4.3-1.9c1.5-0.4,3.2-0.7,5-0.7c2.3,0,4.6,0.4,6.7,1.3s4.2,2.2,5.9,4.1
			c0.5,0.5,0.7,1,0.7,1.6c0,0.3-0.1,0.6-0.2,0.9s-0.3,0.5-0.5,0.7s-0.5,0.4-0.8,0.5s-0.6,0.2-0.9,0.2s-0.6-0.1-0.9-0.2
			s-0.5-0.3-0.7-0.5c-1.3-1.3-2.8-2.2-4.4-2.9c-1.6-0.6-3.3-0.9-5-0.9c-1.8,0-3.5,0.3-5.1,1s-2.9,1.6-4.2,2.7
			c-1.2,1.2-2.1,2.5-2.8,4.2c-0.7,1.6-1,3.3-1,5.1c0,1.7,0.3,3.5,1,5.1s1.6,2.9,2.7,4.2c1.2,1.2,2.5,2.1,4.2,2.8
			c1.6,0.7,3.4,1,5.2,1c1.7,0,3.4-0.3,4.9-0.9s2.9-1.5,4.4-2.8c0.2-0.2,0.5-0.4,0.8-0.5s0.6-0.2,0.9-0.2s0.6,0.1,0.9,0.2
			s0.5,0.3,0.7,0.5s0.3,0.5,0.5,0.7c0.1,0.3,0.2,0.6,0.2,0.9c0,0.7-0.2,1.2-0.7,1.6c-1.8,1.8-3.8,3.2-5.9,4
			C403.5,130.2,401.1,130.8,398.8,130.8z"/>
		<path d="M435,124.1c-0.2-0.4-0.3-0.9-0.3-1.3c0-0.3,0.1-0.6,0.2-0.9s0.3-0.5,0.5-0.7s0.5-0.3,0.7-0.5c0.3-0.1,0.5-0.2,0.8-0.2
			c0.7,0,1.4,0.5,2.2,1.4c0.7,1.3,1.8,2.3,3.2,3s2.8,1.1,4.7,1.1c0.9,0,1.7-0.1,2.5-0.4c0.8-0.2,1.6-0.6,2.2-1.1
			c0.7-0.5,1.2-1.1,1.6-1.8s0.6-1.5,0.6-2.4s-0.2-1.6-0.6-2.2s-1-1.1-1.6-1.5c-0.7-0.4-1.4-0.7-2.3-1s-1.7-0.5-2.5-0.8
			c-1.5-0.3-2.9-0.7-4.4-1.2c-1.4-0.5-2.5-1.2-3.7-1.9c-1-0.8-1.8-1.7-2.4-2.8s-0.9-2.3-0.9-3.9s0.3-2.8,0.9-4.1
			c0.6-1.2,1.5-2.2,2.5-3.2c1-0.8,2.2-1.5,3.6-2c1.3-0.5,2.7-0.7,4.2-0.7c1.1,0,2.1,0.1,3.2,0.3c1,0.2,2,0.5,2.8,1
			c0.9,0.4,1.7,1,2.4,1.6c0.7,0.6,1.3,1.4,1.8,2.2c0.2,0.3,0.2,0.6,0.2,0.9c0,0.6-0.2,1.1-0.6,1.5s-0.9,0.6-1.6,0.6
			c-0.5,0-1-0.2-1.4-0.5c-0.5-0.5-1-1-1.5-1.3c-0.5-0.4-1-0.7-1.5-0.9c-0.5-0.2-1.1-0.4-1.7-0.5s-1.3-0.2-2-0.2
			c-0.8,0-1.6,0.1-2.4,0.3c-0.8,0.2-1.5,0.5-2.1,1c-0.6,0.4-1.1,0.9-1.5,1.6s-0.6,1.3-0.6,2.1c0,0.9,0.2,1.6,0.7,2.2s1.1,1,1.8,1.4
			c0.7,0.4,1.6,0.7,2.5,1c1,0.3,1.9,0.5,2.9,0.7c1.3,0.4,2.5,0.8,3.9,1.3c1.2,0.5,2.3,1.1,3.4,1.9s1.7,1.7,2.3,2.7
			c0.6,1,0.9,2.3,0.9,3.9s-0.3,2.9-0.9,4.3c-0.6,1.3-1.5,2.4-2.6,3.4s-2.3,1.7-3.9,2.2c-1.5,0.5-3,0.8-4.7,0.8
			c-1.3,0-2.6-0.2-3.9-0.5c-1.2-0.3-2.3-0.8-3.5-1.4c-1-0.6-1.9-1.3-2.7-2.1C435.5,125.7,435.5,125,435,124.1z"/>
	</g>
</g>
</svg>
